<?xml version="1.0" standalone="no"?><!DOCTYPE svg PUBLIC "-//W3C//DTD SVG 1.1//EN" "http://www.w3.org/Graphics/SVG/1.1/DTD/svg11.dtd"><svg t="1499328609383" class="icon" style="" viewBox="0 0 1024 1024" version="1.1" xmlns="http://www.w3.org/2000/svg" p-id="1466" xmlns:xlink="http://www.w3.org/1999/xlink" width="128" height="128"><defs><style type="text/css"></style></defs><path d="M597.333333 85.333333 256 85.333333C209.066667 85.333333 171.093333 123.733333 171.093333 170.666667L170.666667 853.333333c0 46.933333 37.973333 85.333333 84.906667 85.333333L768 938.666667c46.933333 0 85.333333-38.4 85.333333-85.333333L853.333333 341.333333 597.333333 85.333333zM682.666667 768 341.333333 768l0-85.333333 341.333333 0L682.666667 768zM682.666667 597.333333 341.333333 597.333333l0-85.333333 341.333333 0L682.666667 597.333333zM554.666667 384 554.666667 149.333333 789.333333 384 554.666667 384z" p-id="1467" fill="#8a8a8a"></path></svg>