<?xml version="1.0" standalone="no"?><!DOCTYPE svg PUBLIC "-//W3C//DTD SVG 1.1//EN" "http://www.w3.org/Graphics/SVG/1.1/DTD/svg11.dtd"><svg t="1499829794825" class="icon" style="" viewBox="0 0 1024 1024" version="1.1" xmlns="http://www.w3.org/2000/svg" p-id="1590" xmlns:xlink="http://www.w3.org/1999/xlink" width="128" height="128"><defs><style type="text/css"></style></defs><path d="M278.157312 447.32416l0-80.462848-40.866816 0 0 80.462848L278.157312 447.32416zM257.95072 381.536256l0.848896 2.297856c4.566016 12.352512 9.304064 26.723328 14.082048 42.712064l0.73216 2.450432-17.406976 5.221376-0.710656-2.496512c-4.227072-14.838784-8.822784-29.043712-13.659136-42.221568l-0.919552-2.505728L257.95072 381.536256z" p-id="1591" fill="#bfbfbf"></path><path d="M297.619456 366.861312l0 80.462848 40.866816 0 0-80.462848L297.619456 366.861312zM333.492224 389.761024c-4.984832 14.538752-10.353664 28.750848-15.95904 42.241024l-0.961536 2.317312-16.308224-6.390784 1.006592-2.414592c6.483968-15.538176 11.702272-29.522944 15.510528-41.56416l0.799744-2.528256 16.73216 5.943296L333.492224 389.761024z" p-id="1592" fill="#bfbfbf"></path><path d="M914.742272 265.699328 109.257728 265.699328c-25.129984 0-45.50144 20.371456-45.50144 45.50144l0 343.845888c0 25.129984 20.371456 45.50144 45.50144 45.50144l805.48352 0c25.129984 0 45.50144-20.371456 45.50144-32.164864L960.242688 324.53632C960.243712 286.070784 939.871232 265.699328 914.742272 265.699328zM592.739328 338.917376l1.620992 1.554432c17.412096 16.688128 34.172928 33.555456 49.818624 50.131968l1.850368 1.959936-18.630656 15.855616-1.661952-1.90464c-16.32256-18.694144-32.590848-36.061184-48.352256-51.616768l-2.046976-2.019328L592.739328 338.917376zM465.451008 351.062016l1.415168 1.876992c9.852928 13.069312 18.906112 25.859072 26.906624 38.014976l1.408 2.138112-17.130496 11.280384-1.3824-2.255872c-8.124416-13.263872-16.889856-26.206208-26.05568-38.464512l-1.662976-2.224128L465.451008 351.062016zM209.371136 535.713792c10.041344-0.412672 25.55392-1.19808 46.106624-2.335744 9.621504-0.538624 17.180672-0.961536 22.678528-1.268736L278.156288 505.4464l-64.226304 0 0-18.527232 64.226304 0 0-21.69344-60.01664 0L218.139648 348.33408l139.496448 0 0 116.891648-60.01664 0 0 21.69344 61.264896 0L358.884352 505.4464l-61.264896 0 0 25.43104c15.649792-0.960512 37.559296-2.632704 65.191936-4.97664l2.921472-0.247808-0.14848 2.927616c-0.104448 2.05824-0.207872 4.163584-0.309248 6.322176l0 10.289152-2.394112 0.154624c-62.066688 4.027392-112.768 7.697408-150.693888 10.908672l-2.364416 0.19968-3.335168-20.62336L209.371136 535.713792zM240.605184 574.886912c-5.712896 18.381824-12.397568 37.118976-19.867648 55.691264l-0.93696 2.330624-19.20512-7.30624 1.081344-2.464768c7.704576-17.565696 14.221312-35.705856 19.365888-53.916672l0.700416-2.475008 19.639296 5.641216L240.605184 574.886912zM263.503872 626.331648l-0.4352-2.691072c-2.680832-16.598016-6.07744-33.421312-10.092544-50.00192l-0.626688-2.589696 19.03616-3.807232 0.591872 2.367488c4.35712 17.429504 8.142848 34.148352 11.249664 49.690624l0.489472 2.446336L263.503872 626.331648zM306.429952 616.400896l-0.739328-2.603008c-3.915776-13.805568-8.879104-28.901376-14.749696-44.86656l-0.941056-2.56 17.963008-5.34528 0.859136 2.189312c5.286912 13.476864 10.601472 28.366848 15.7952 44.256256l0.78336 2.395136L306.429952 616.400896zM325.892096 561.040384l17.47456-7.458816 1.137664 1.951744c6.54336 11.216896 12.918784 23.179264 18.952192 35.555328l1.175552 2.412544-18.143232 7.805952-1.05472-2.23744c-5.972992-12.663808-12.0832-24.623104-18.16064-35.546112L325.892096 561.040384zM510.35136 617.797632c-4.586496 4.176896-9.02656 8.721408-13.202432 13.507584l-1.839104 2.10944-1.938432-2.020352c-34.915328-36.4032-56.64256-83.391488-64.7424-139.912192-9.372672 59.150336-32.411648 107.104256-68.639744 142.770176l-1.957888 1.928192-1.784832-2.089984c-3.5328-4.137984-7.84384-8.3968-12.813312-12.65664l-2.15552-1.84832 2.061312-1.953792c42.5472-40.326144 67.013632-98.571264 72.740864-173.139968l-47.975424 0 0-19.462144 50.382848 0c1.118208-15.660032 1.68448-41.729024 1.68448-77.565952l0-14.096384 21.020672 0 0 2.56c0 32.919552-0.688128 62.87872-2.043904 89.102336l65.335296 0 0 19.462144-65.181696 0c8.584192 77.35808 32.482304 134.385664 71.049216 169.519104l2.077696 1.892352L510.35136 617.797632zM597.318656 604.187648l-1.778688 2.02752-16.080896-15.679488 1.480704-1.815552c2.994176-3.670016 5.040128-7.259136 6.08256-10.665984 1.175552-3.434496 1.759232-7.875584 1.759232-13.28128L588.781568 455.872512l-41.622528 0L547.15904 434.85184l63.890432 0 0 128.7424c16.451584-13.444096 33.937408-28.153856 52.042752-43.784192l3.490816-3.013632 0.710656 4.5568c1.011712 6.483968 2.34496 12.33408 3.961856 17.386496l0.53248 1.661952-1.35168 1.102848c-15.67232 12.78464-36.063232 29.768704-60.607488 50.481152C605.165568 595.936256 600.955904 600.04352 597.318656 604.187648zM852.754432 612.521984c-5.510144 5.817344-10.157056 11.339776-13.809664 16.41472l-1.538048 2.13504-2.092032-1.595392c-46.574592-35.509248-76.418048-89.662464-88.859648-161.138688-10.1376 68.984832-41.740288 125.262848-94.111744 167.486464l-1.957888 1.577984-1.6128-1.928192c-4.691968-5.610496-9.392128-10.620928-13.969408-14.892032l-2.262016-2.111488 2.497536-1.826816c31.611904-23.120896 55.743488-52.122624 71.72096-86.20032 16.004096-34.13504 24.301568-74.358784 24.660992-119.554048 0.413696-16.832512 0.622592-41.305088 0.622592-72.779776l0-2.56 23.359488 0 0 2.56c0 20.059136-0.313344 40.0128-0.930816 59.309056 5.20192 53.014528 16.095232 97.681408 32.377856 132.758528 16.208896 34.921472 38.216704 61.303808 65.410048 78.414848l2.64192 1.661952L852.754432 612.521984z" p-id="1593" fill="#bfbfbf"></path></svg>